<svg xmlns="http://www.w3.org/2000/svg"><symbol id="icon_arrow" viewBox="0 0 14 18"><path d="m7.171 9-3-3h6l-3 3zm3-9h-6l3 3 3-3zm3.066 10L7 16.427.763 10 0 10.787l6.237 6.426L7 18l7-7.213-.763-.787z"/></symbol><symbol id="icon_calendar" viewBox="0 0 32 32"><path fill-rule="evenodd" clip-rule="evenodd" d="M23.707 10.293a1 1 0 0 1 0 1.414l-9 9a.997.997 0 0 1-1.414 0l-5-5a1 1 0 1 1 1.414-1.414L14 18.586l8.293-8.293a1 1 0 0 1 1.414 0zM32 6.426v18.149a4.412 4.412 0 0 1-2.074 3.736A4.417 4.417 0 0 1 25.575 32H6.425a4.417 4.417 0 0 1-4.35-3.689A4.412 4.412 0 0 1 0 24.575V6.425A4.426 4.426 0 0 1 4.426 2H6V0h2v2h16V0h2v2h1.575A4.426 4.426 0 0 1 32 6.426zM27.536 29H4.464c.442.606 1.156 1 1.962 1h19.149c.805 0 1.52-.394 1.96-1zM30 6.426A2.428 2.428 0 0 0 27.575 4H26v2h-2V4H8v2H6V4H4.426A2.428 2.428 0 0 0 2 6.426v18.149A2.428 2.428 0 0 0 4.426 27h23.149A2.428 2.428 0 0 0 30 24.575V6.425z"/></symbol><symbol id="icon_cup" viewBox="0 0 32 32"><path fill-rule="evenodd" clip-rule="evenodd" d="M26 32H6a2 2 0 0 1 2-2h16a2 2 0 0 1 2 2zm-16-3h12a2 2 0 0 0-2-2h-8a2 2 0 0 0-2 2zm3-4v1h6v-1h-6zM32 4v1c0 4.254-3.323 7.723-7.514 7.976-1.124 3.203-4.001 5.58-7.486 5.965V24h-2v-5.059c-3.485-.385-6.362-2.762-7.486-5.965C3.324 12.723 0 9.254 0 5V4h7V0h18v4h7zM7 10V6H2.083A6.016 6.016 0 0 0 7 10.917V10zm16 0V2H9v8c0 3.86 3.14 7 7 7s7-3.14 7-7zm6.917-4H25v4.917A6.016 6.016 0 0 0 29.917 6zm-12.68 1.633L16 5l-1.236 2.633L12 8.056l2 2.05L13.528 13 16 11.633 18.472 13 18 10.106l2-2.05-2.764-.423z"/></symbol><symbol id="icon_login" viewBox="0 0 24 24"><path d="M12 2c5.514 0 10 4.486 10 10s-4.486 10-10 10S2 17.514 2 12 6.486 2 12 2zm0-2C5.373 0 0 5.373 0 12s5.373 12 12 12 12-5.373 12-12S18.627 0 12 0zm.707 13.946L11.672 15H11v1h-1v1H7v-2.292l3.146-3.185a4.606 4.606 0 0 0 2.561 2.423zM18 9.667a3.667 3.667 0 1 1-7.335 0 3.667 3.667 0 0 1 7.335 0zm-1.375-1.375a.917.917 0 1 0-1.834 0 .917.917 0 0 0 1.834 0z"/></symbol><symbol id="icon_mail" viewBox="0 0 20 20"><path d="M10 12.679 0 4.837v11.667h20V4.837l-10 7.842z"/><path d="M19.785 3.516H.215L10 11.19l9.785-7.674z"/></symbol><symbol id="icon_numbers" viewBox="0 0 373 239"><path d="M373 187.103V239H236.954v-51.898l32.732-6.829V62.823l-27.276 7.853-14.315-49.166L305.15 0h35.118v180.274L373 187.103zM151.041 0l49.78 41.654v154.667C183.432 210.319 166.384 225 148.997 239H51.484L0 196.321V41.654L49.78 0H151.04zm-20.457 66.237-9.206-7.17H79.441l-9.206 7.17v106.184l9.547 7.853h41.255l9.547-7.853V66.237z"/></symbol><symbol id="icon_telegram" viewBox="0 0 14 13"><path d="m13.964 1.1-2.135 10.148c-.072.37-.217.592-.434.703-.18.111-.434.074-.723-.11l-3.22-2.445-1.555 1.518c-.109.111-.181.186-.254.223a.717.717 0 0 1-.398.11l.254-3.37 5.969-5.481c.072-.074.108-.148.072-.185a.273.273 0 0 0-.18-.074c-.11 0-.182.037-.29.11L3.69 7.026.506 5.988C.145 5.878 0 5.73 0 5.507c0-.222.253-.407.651-.593L13.06.063c.326-.112.58-.075.76.11.181.186.217.482.145.927z"/></symbol><symbol id="icon_tv" viewBox="0 0 32 30"><path fill-rule="evenodd" clip-rule="evenodd" d="M27.575 0H4.425A4.426 4.426 0 0 0 0 4.426v16.149A4.426 4.426 0 0 0 4.426 25h23.149A4.426 4.426 0 0 0 32 20.575V4.425A4.426 4.426 0 0 0 27.575 0zM30 20.575A2.428 2.428 0 0 1 27.575 23H4.425A2.428 2.428 0 0 1 2 20.575V4.425A2.428 2.428 0 0 1 4.426 2h23.149A2.428 2.428 0 0 1 30 4.426v16.149zM6 20h2v1H6v-1zm0-2h2v1H6v-1zm6-4h2v5h-2v-5zm6-4h2v9h-2v-9zm6 10h2v1h-2v-1zm0-14h2v13h-2V6zM12 20h2v1h-2v-1zm6 0h2v1h-2v-1zm8 10H6a2 2 0 0 1 2-2h16a2 2 0 0 1 2 2zm-6-4v1h-8v-1h8z"/></symbol></svg>