<svg width="67" height="69" viewBox="0 0 67 69" fill="none" xmlns="http://www.w3.org/2000/svg">
<circle cx="34" cy="38" r="31" fill="#405367"/>
<path d="M42.2097 59.1253C41.6356 59.1253 41.0884 58.9886 40.5913 58.7503C40.0942 58.508 39.6511 58.1603 39.2773 57.7384C38.5336 56.8906 38.0674 55.7342 38.0289 54.4567V54.4528C38.0289 54.423 38.0279 54.3942 38.0269 54.3659C38.0259 54.3385 38.025 54.3117 38.025 54.2848C38.025 53.3393 38.2639 52.4486 38.6839 51.7024C38.8804 51.3508 39.1194 51.0265 39.3929 50.7452C38.9845 50.6944 38.5953 50.5733 38.2331 50.3975C37.736 50.1553 37.2929 49.8115 36.9191 49.3857C36.1754 48.5379 35.7091 47.3854 35.6706 46.1079V46.1118C35.6668 46.0532 35.6668 45.9946 35.6668 45.9399C35.6668 44.9944 35.9057 44.1076 36.3257 43.3575C36.7457 42.6074 37.3468 41.9979 38.0751 41.6111C38.5606 41.3572 39.1039 41.2048 39.6742 41.1853H39.6781L39.9363 41.1775C39.8361 41.0837 39.7359 40.9821 39.6434 40.8767C38.8997 40.0289 38.4335 38.8764 38.3949 37.5989C38.3949 37.5696 38.394 37.5412 38.393 37.5129C38.392 37.4846 38.3911 37.4563 38.3911 37.427C38.3911 36.4815 38.63 35.5947 39.05 34.8446C39.47 34.0945 40.0711 33.485 40.7994 33.0982C41.2849 32.8443 41.8283 32.6919 42.3985 32.6724H42.4024H42.4448C42.3485 32.5825 42.2598 32.4888 42.1712 32.3911C41.4275 31.5433 40.9613 30.3908 40.9227 29.1133C40.9227 29.0835 40.9217 29.0537 40.9207 29.0244C40.9198 28.9961 40.9189 28.9683 40.9189 28.9414C40.9189 27.9959 41.1578 27.1091 41.5778 26.359C41.9978 25.6089 42.5989 24.9994 43.3272 24.6127C43.8012 24.3626 44.3291 24.2142 44.884 24.1907C45.1036 24.1556 46.8183 23.8977 49.1535 23.6399C49.7816 23.5695 50.4597 23.4992 51.1611 23.4328C49.1342 22.4639 46.9301 21.9287 44.6142 21.9287C44.5911 21.9287 44.5834 21.9287 44.5564 21.9248H44.5526H44.5372C44.5244 21.9248 44.5037 21.9221 44.4795 21.919C44.4744 21.9183 44.4692 21.9176 44.4639 21.917C44.4384 21.9154 44.4076 21.9133 44.3715 21.9108C44.315 21.907 44.2456 21.9022 44.1634 21.8974C43.8975 21.8818 43.5045 21.8701 42.9997 21.8701C42.7723 21.8701 42.518 21.874 42.2483 21.8818L40.6838 24.0149C40.495 24.2728 40.1328 24.3275 39.8785 24.136C39.7552 24.0423 39.6781 23.9094 39.655 23.7649C39.628 23.6125 39.6588 23.4484 39.759 23.3156L46.5255 14.0799C46.5409 14.0604 46.5525 14.0448 46.5679 14.0291C47.4349 13.0915 48.063 12.1383 48.4753 11.1577C48.8876 10.181 49.0841 9.1769 49.088 8.11816C49.088 6.83673 48.7912 5.46935 48.1978 4.0004C48.0129 3.5433 47.7547 3.00416 47.4349 2.52363C47.1189 2.04309 46.7374 1.62897 46.3482 1.39847C46.0862 1.2422 45.8242 1.16016 45.539 1.16016C45.4697 1.16016 45.4003 1.16406 45.3271 1.17578C45.092 1.21094 44.9071 1.28908 44.7337 1.40238C44.5641 1.51958 44.41 1.67976 44.2674 1.88291C43.9784 2.28531 43.7511 2.85571 43.5507 3.43782C43.5107 3.55252 43.4717 3.6679 43.4329 3.78296C43.3407 4.05588 43.2491 4.32693 43.1461 4.58251C42.7646 5.53577 42.2444 6.38354 41.6356 7.15318C41.0268 7.92282 40.337 8.61823 39.6126 9.26676C38.8696 9.93391 38.0921 10.5559 37.3317 11.1642C36.6092 11.7422 35.9021 12.3078 35.2544 12.8884C30.8192 16.8772 26.5729 21.5458 23.4285 26.6403C23.4026 26.6818 23.3768 26.7231 23.351 26.7642C23.2846 26.87 23.2188 26.9748 23.1549 27.0818C23.0625 27.238 22.9083 27.3279 22.7426 27.3552C22.6644 27.4416 22.5857 27.5287 22.5063 27.6165C22.2768 27.8704 22.0419 28.1303 21.7986 28.3944C21.6907 28.5155 21.5365 28.582 21.3747 28.582H1.15234V58.3635H15.4868C15.5716 58.3635 15.6486 58.383 15.7218 58.4143L15.7334 58.3908C16.5041 59.0472 17.3557 59.598 18.2997 60.0395C20.0723 60.8677 22.1646 61.3092 24.5961 61.3092H24.5999L47.589 61.5436C50.2941 61.5436 52.5984 60.9771 54.5327 59.934C48.9889 59.9036 43.1246 59.2272 42.3309 59.1356C42.3081 59.133 42.2895 59.1309 42.2752 59.1292C42.258 59.1234 42.2429 59.1241 42.2268 59.1248C42.2213 59.1251 42.2156 59.1253 42.2097 59.1253ZM31.5206 42.2167C30.1141 42.9902 28.4533 43.5137 26.5613 43.5137C25.4978 43.5137 24.3649 43.3497 23.1626 42.9785C22.9392 42.9082 22.785 42.7129 22.758 42.4902C22.7465 42.412 22.7542 42.33 22.7773 42.2479C22.8158 42.119 22.8968 42.0135 23.0008 41.9393C23.1395 41.8416 23.3206 41.8026 23.4979 41.8573C23.6788 41.9148 23.8596 41.9624 24.0375 42.0092C24.0529 42.0133 24.0682 42.0173 24.0836 42.0214C24.9583 42.244 25.7829 42.3417 26.5574 42.3417C28.2259 42.3417 29.6787 41.8885 30.9348 41.2048C32.1949 40.5172 33.2546 39.5913 34.11 38.6576C35.1851 37.4817 35.9288 36.2901 36.3411 35.5595C36.5668 35.1562 36.6893 34.8915 36.7084 34.8501C36.7099 34.847 36.7107 34.8451 36.711 34.8446C36.842 34.5516 37.185 34.4226 37.474 34.5555C37.763 34.6883 37.8901 35.036 37.7591 35.329C37.7476 35.3563 37.2351 36.4893 36.2062 37.9114C35.1812 39.3374 33.6322 41.0564 31.5206 42.2167Z" fill="#BCCFE4"/>
<path d="M42.2097 59.1253C41.6356 59.1253 41.0884 58.9886 40.5913 58.7503C40.0942 58.508 39.6511 58.1603 39.2773 57.7384C38.5336 56.8906 38.0674 55.7342 38.0289 54.4567V54.4528C38.0289 54.423 38.0279 54.3942 38.0269 54.3659C38.0259 54.3385 38.025 54.3117 38.025 54.2848C38.025 53.3393 38.2639 52.4486 38.6839 51.7024C38.8804 51.3508 39.1194 51.0265 39.3929 50.7452C38.9845 50.6944 38.5953 50.5733 38.2331 50.3975C37.736 50.1553 37.2929 49.8115 36.9191 49.3857C36.1754 48.5379 35.7091 47.3854 35.6706 46.1079V46.1118C35.6668 46.0532 35.6668 45.9946 35.6668 45.9399C35.6668 44.9944 35.9057 44.1076 36.3257 43.3575C36.7457 42.6074 37.3468 41.9979 38.0751 41.6111C38.5606 41.3572 39.1039 41.2048 39.6742 41.1853H39.6781L39.9363 41.1775C39.8361 41.0837 39.7359 40.9821 39.6434 40.8767C38.8997 40.0289 38.4335 38.8764 38.3949 37.5989C38.3949 37.5696 38.394 37.5412 38.393 37.5129C38.392 37.4846 38.3911 37.4563 38.3911 37.427C38.3911 36.4815 38.63 35.5947 39.05 34.8446C39.47 34.0945 40.0711 33.485 40.7994 33.0982C41.2849 32.8443 41.8283 32.6919 42.3985 32.6724H42.4024H42.4448C42.3485 32.5825 42.2598 32.4888 42.1712 32.3911C41.4275 31.5433 40.9613 30.3908 40.9227 29.1133C40.9227 29.0835 40.9217 29.0537 40.9207 29.0244C40.9198 28.9961 40.9189 28.9683 40.9189 28.9414C40.9189 27.9959 41.1578 27.1091 41.5778 26.359C41.9978 25.6089 42.5989 24.9994 43.3272 24.6127C43.8012 24.3626 44.3291 24.2142 44.884 24.1907C45.1036 24.1556 46.8183 23.8977 49.1535 23.6399C49.7816 23.5695 50.4597 23.4992 51.1611 23.4328C49.1342 22.4639 46.9301 21.9287 44.6142 21.9287C44.5911 21.9287 44.5834 21.9287 44.5564 21.9248H44.5526H44.5372C44.5244 21.9248 44.5037 21.9221 44.4795 21.919C44.4744 21.9183 44.4692 21.9176 44.4639 21.917C44.4384 21.9154 44.4076 21.9133 44.3715 21.9108C44.315 21.907 44.2456 21.9022 44.1634 21.8974C43.8975 21.8818 43.5045 21.8701 42.9997 21.8701C42.7723 21.8701 42.518 21.874 42.2483 21.8818L40.6838 24.0149C40.495 24.2728 40.1328 24.3275 39.8785 24.136C39.7552 24.0423 39.6781 23.9094 39.655 23.7649C39.628 23.6125 39.6588 23.4484 39.759 23.3156L46.5255 14.0799C46.5409 14.0604 46.5525 14.0448 46.5679 14.0291C47.4349 13.0915 48.063 12.1383 48.4753 11.1577C48.8876 10.181 49.0841 9.1769 49.088 8.11816C49.088 6.83673 48.7912 5.46935 48.1978 4.0004C48.0129 3.5433 47.7547 3.00416 47.4349 2.52363C47.1189 2.04309 46.7374 1.62897 46.3482 1.39847C46.0862 1.2422 45.8242 1.16016 45.539 1.16016C45.4697 1.16016 45.4003 1.16406 45.3271 1.17578C45.092 1.21094 44.9071 1.28908 44.7337 1.40238C44.5641 1.51958 44.41 1.67976 44.2674 1.88291C43.9784 2.28531 43.7511 2.85571 43.5507 3.43782C43.5107 3.55252 43.4717 3.6679 43.4329 3.78296C43.3407 4.05588 43.2491 4.32693 43.1461 4.58251C42.7646 5.53577 42.2444 6.38354 41.6356 7.15318C41.0268 7.92282 40.337 8.61823 39.6126 9.26676C38.8696 9.93391 38.0921 10.5559 37.3317 11.1642C36.6092 11.7422 35.9021 12.3078 35.2544 12.8884C30.8192 16.8772 26.5729 21.5458 23.4285 26.6403C23.4026 26.6818 23.3768 26.7231 23.351 26.7642C23.2846 26.87 23.2188 26.9748 23.1549 27.0818C23.0625 27.238 22.9083 27.3279 22.7426 27.3552C22.6644 27.4416 22.5857 27.5287 22.5063 27.6165C22.2768 27.8704 22.0419 28.1303 21.7986 28.3944C21.6907 28.5155 21.5365 28.582 21.3747 28.582H1.15234V58.3635H15.4868C15.5716 58.3635 15.6486 58.383 15.7218 58.4143L15.7334 58.3908C16.5041 59.0472 17.3557 59.598 18.2997 60.0395C20.0723 60.8677 22.1646 61.3092 24.5961 61.3092H24.5999L47.589 61.5436C50.2941 61.5436 52.5984 60.9771 54.5327 59.934C48.9889 59.9036 43.1246 59.2272 42.3309 59.1356C42.3081 59.133 42.2895 59.1309 42.2752 59.1292C42.258 59.1234 42.2429 59.1241 42.2268 59.1248C42.2213 59.1251 42.2156 59.1253 42.2097 59.1253ZM31.5206 42.2167C30.1141 42.9902 28.4533 43.5137 26.5613 43.5137C25.4978 43.5137 24.3649 43.3497 23.1626 42.9785C22.9392 42.9082 22.785 42.7129 22.758 42.4902C22.7465 42.412 22.7542 42.33 22.7773 42.2479C22.8158 42.119 22.8968 42.0135 23.0008 41.9393C23.1395 41.8416 23.3206 41.8026 23.4979 41.8573C23.6788 41.9148 23.8596 41.9624 24.0375 42.0092C24.0529 42.0133 24.0682 42.0173 24.0836 42.0214C24.9583 42.244 25.7829 42.3417 26.5574 42.3417C28.2259 42.3417 29.6787 41.8885 30.9348 41.2048C32.1949 40.5172 33.2546 39.5913 34.11 38.6576C35.1851 37.4817 35.9288 36.2901 36.3411 35.5595C36.5668 35.1562 36.6893 34.8915 36.7084 34.8501C36.7099 34.847 36.7107 34.8451 36.711 34.8446C36.842 34.5516 37.185 34.4226 37.474 34.5555C37.763 34.6883 37.8901 35.036 37.7591 35.329C37.7476 35.3563 37.2351 36.4893 36.2062 37.9114C35.1812 39.3374 33.6322 41.0564 31.5206 42.2167Z" stroke="#405367"/>
<path d="M62.9406 50.5732C62.6632 50.6592 62.3742 50.7373 62.0698 50.8076C61.2875 50.9874 60.4167 51.128 59.4803 51.2335C57.6115 51.4445 55.4921 51.5226 53.3497 51.5226C48.4713 51.5226 43.4735 51.1163 41.1808 50.9014C41.1076 50.9327 41.0382 50.9639 40.965 50.9991C40.6221 51.1788 40.3099 51.4366 40.0479 51.757C39.5162 52.3977 39.1809 53.2963 39.1809 54.2886V54.4175V54.4214C39.204 55.1794 39.416 55.8709 39.7589 56.4373C40.098 57.0038 40.5681 57.4414 41.0922 57.6953C41.4428 57.8672 41.8166 57.9571 42.2096 57.9571H42.2867H42.2867C42.3098 57.9571 42.3484 57.9571 42.3715 57.961C42.3715 57.961 42.3946 57.9649 42.4447 57.9688C42.4766 57.9738 42.5179 57.9788 42.5676 57.9848C42.5959 57.9882 42.6269 57.9919 42.6605 57.9962C42.8493 58.0196 43.1306 58.0509 43.4851 58.086C44.1941 58.1602 45.1998 58.2618 46.3982 58.3634C48.7873 58.5665 51.9278 58.7658 54.9103 58.7658C56.1857 58.7658 57.4265 58.7306 58.5709 58.6408C59.7115 58.5548 60.7519 58.4142 61.6112 58.211C62.1815 58.0782 62.6709 57.918 63.0485 57.7344C63.4685 57.5352 63.9194 57.1484 64.2508 56.6171C64.586 56.0857 64.8095 55.4177 64.8095 54.6402C64.8095 54.0386 64.6746 53.3627 64.3394 52.6282C64.0427 51.9836 63.5919 51.2921 62.9406 50.5732Z" fill="#BCCFE4"/>
<path d="M62.9406 50.5732C62.6632 50.6592 62.3742 50.7373 62.0698 50.8076C61.2875 50.9874 60.4167 51.128 59.4803 51.2335C57.6115 51.4445 55.4921 51.5226 53.3497 51.5226C48.4713 51.5226 43.4735 51.1163 41.1808 50.9014C41.1076 50.9327 41.0382 50.9639 40.965 50.9991C40.6221 51.1788 40.3099 51.4366 40.0479 51.757C39.5162 52.3977 39.1809 53.2963 39.1809 54.2886V54.4175V54.4214C39.204 55.1794 39.416 55.8709 39.7589 56.4373C40.098 57.0038 40.5681 57.4414 41.0922 57.6953C41.4428 57.8672 41.8166 57.9571 42.2096 57.9571H42.2867H42.2867C42.3098 57.9571 42.3484 57.9571 42.3715 57.961C42.3715 57.961 42.3946 57.9649 42.4447 57.9688C42.4766 57.9738 42.5179 57.9788 42.5676 57.9848C42.5959 57.9882 42.6269 57.9919 42.6605 57.9962C42.8493 58.0196 43.1306 58.0509 43.4851 58.086C44.1941 58.1602 45.1998 58.2618 46.3982 58.3634C48.7873 58.5665 51.9278 58.7658 54.9103 58.7658C56.1857 58.7658 57.4265 58.7306 58.5709 58.6408C59.7115 58.5548 60.7519 58.4142 61.6112 58.211C62.1815 58.0782 62.6709 57.918 63.0485 57.7344C63.4685 57.5352 63.9194 57.1484 64.2508 56.6171C64.586 56.0857 64.8095 55.4177 64.8095 54.6402C64.8095 54.0386 64.6746 53.3627 64.3394 52.6282C64.0427 51.9836 63.5919 51.2921 62.9406 50.5732Z" stroke="#405367"/>
<path d="M63.4837 41.8652C63.0521 42.0332 62.5666 42.17 62.0387 42.2872C61.349 42.4395 60.5822 42.5567 59.7614 42.6466C58.1199 42.8224 56.2587 42.8888 54.3821 42.8888C49.1686 42.8888 43.8124 42.377 42.7913 42.2754L39.7124 42.3536H39.7163C39.3233 42.3653 38.9533 42.4669 38.6104 42.6466C38.2674 42.8263 37.9553 43.0842 37.6933 43.4045C37.1615 44.0452 36.8263 44.9438 36.8263 45.9361C36.8263 45.983 36.8263 46.026 36.8301 46.0689V46.0729C36.8533 46.8308 37.0652 47.5223 37.4081 48.0888C37.7472 48.6552 38.2174 49.0889 38.7414 49.3467C39.0921 49.5186 39.4658 49.6085 39.8589 49.6085H39.9398H39.9398C39.9629 49.6085 39.9937 49.6085 40.0169 49.6124C40.0169 49.6124 40.0438 49.6163 40.0939 49.6202C40.144 49.6241 40.2211 49.6319 40.3213 49.6437C40.3606 49.6476 40.4038 49.652 40.4508 49.6567C40.6382 49.6757 40.8847 49.7007 41.1806 49.7257C41.9204 49.796 42.9762 49.8898 44.2324 49.9797C46.7525 50.1672 50.0895 50.3508 53.3533 50.3508C54.9409 50.3508 56.5092 50.3078 57.9542 50.1984C59.3992 50.089 60.7247 49.9171 61.8152 49.6671C62.5397 49.4991 63.1639 49.296 63.6379 49.0655C64.0579 48.8623 64.5087 48.4716 64.8401 47.9403C65.1753 47.409 65.3988 46.7409 65.3988 45.9674C65.3988 45.3657 65.264 44.6938 64.9249 43.9554C64.6205 43.3029 64.1581 42.5997 63.4837 41.8652Z" fill="#BCCFE4"/>
<path d="M63.4837 41.8652C63.0521 42.0332 62.5666 42.17 62.0387 42.2872C61.349 42.4395 60.5822 42.5567 59.7614 42.6466C58.1199 42.8224 56.2587 42.8888 54.3821 42.8888C49.1686 42.8888 43.8124 42.377 42.7913 42.2754L39.7124 42.3536H39.7163C39.3233 42.3653 38.9533 42.4669 38.6104 42.6466C38.2674 42.8263 37.9553 43.0842 37.6933 43.4045C37.1615 44.0452 36.8263 44.9438 36.8263 45.9361C36.8263 45.983 36.8263 46.026 36.8301 46.0689V46.0729C36.8533 46.8308 37.0652 47.5223 37.4081 48.0888C37.7472 48.6552 38.2174 49.0889 38.7414 49.3467C39.0921 49.5186 39.4658 49.6085 39.8589 49.6085H39.9398H39.9398C39.9629 49.6085 39.9937 49.6085 40.0169 49.6124C40.0169 49.6124 40.0438 49.6163 40.0939 49.6202C40.144 49.6241 40.2211 49.6319 40.3213 49.6437C40.3606 49.6476 40.4038 49.652 40.4508 49.6567C40.6382 49.6757 40.8847 49.7007 41.1806 49.7257C41.9204 49.796 42.9762 49.8898 44.2324 49.9797C46.7525 50.1672 50.0895 50.3508 53.3533 50.3508C54.9409 50.3508 56.5092 50.3078 57.9542 50.1984C59.3992 50.089 60.7247 49.9171 61.8152 49.6671C62.5397 49.4991 63.1639 49.296 63.6379 49.0655C64.0579 48.8623 64.5087 48.4716 64.8401 47.9403C65.1753 47.409 65.3988 46.7409 65.3988 45.9674C65.3988 45.3657 65.264 44.6938 64.9249 43.9554C64.6205 43.3029 64.1581 42.5997 63.4837 41.8652Z" stroke="#405367"/>
<path d="M49.7583 24.7535C47.3616 25.0114 45.5158 25.281 45.1189 25.3435L45.038 25.3552C45.0264 25.3571 45.0149 25.3581 45.0033 25.3591C44.9917 25.3601 44.9802 25.361 44.9686 25.363C44.5756 25.3747 44.2057 25.4763 43.8627 25.656C43.5198 25.8357 43.2076 26.0936 42.9456 26.4139C42.4139 27.0546 42.0786 27.9493 42.0786 28.9455C42.0786 28.9924 42.0786 29.0354 42.0825 29.0784C42.1056 29.8363 42.3175 30.5278 42.6605 31.0943C42.9996 31.6607 43.4697 32.0944 43.9937 32.3522C44.3444 32.5202 44.7182 32.614 45.1112 32.614L63.2104 32.1764C63.376 32.0671 63.5687 31.8952 63.7652 31.6725C64.0041 31.399 64.243 31.0513 64.455 30.6567C64.875 29.8753 65.1717 28.9182 65.1679 28.0274C65.1679 27.3828 65.0214 26.7812 64.6785 26.2498C64.3355 25.7185 63.7922 25.2419 62.9098 24.8825C62.3896 24.6676 61.6305 24.5035 60.7365 24.4058C59.8387 24.3043 58.8021 24.2613 57.7001 24.2613C55.1029 24.2574 52.1551 24.4957 49.7583 24.7535Z" fill="#BCCFE4"/>
<path d="M49.7583 24.7535C47.3616 25.0114 45.5158 25.281 45.1189 25.3435L45.038 25.3552C45.0264 25.3571 45.0149 25.3581 45.0033 25.3591C44.9917 25.3601 44.9802 25.361 44.9686 25.363C44.5756 25.3747 44.2057 25.4763 43.8627 25.656C43.5198 25.8357 43.2076 26.0936 42.9456 26.4139C42.4139 27.0546 42.0786 27.9493 42.0786 28.9455C42.0786 28.9924 42.0786 29.0354 42.0825 29.0784C42.1056 29.8363 42.3175 30.5278 42.6605 31.0943C42.9996 31.6607 43.4697 32.0944 43.9937 32.3522C44.3444 32.5202 44.7182 32.614 45.1112 32.614L63.2104 32.1764C63.376 32.0671 63.5687 31.8952 63.7652 31.6725C64.0041 31.399 64.243 31.0513 64.455 30.6567C64.875 29.8753 65.1717 28.9182 65.1679 28.0274C65.1679 27.3828 65.0214 26.7812 64.6785 26.2498C64.3355 25.7185 63.7922 25.2419 62.9098 24.8825C62.3896 24.6676 61.6305 24.5035 60.7365 24.4058C59.8387 24.3043 58.8021 24.2613 57.7001 24.2613C55.1029 24.2574 52.1551 24.4957 49.7583 24.7535Z" stroke="#405367"/>
<path d="M40.1287 39.5795C40.4678 40.146 40.9379 40.5796 41.462 40.8375C41.8126 41.0094 42.1864 41.0992 42.5795 41.0992H42.6565H42.6565C42.6797 41.0992 42.7105 41.0992 42.7336 41.1031C42.7336 41.1031 42.7567 41.1071 42.7991 41.111C42.8215 41.1129 42.8485 41.1157 42.88 41.119C42.9134 41.1224 42.952 41.1265 42.9956 41.1305C43.0598 41.1363 43.135 41.1437 43.2205 41.152C43.3661 41.1663 43.5416 41.1836 43.7432 41.2008C44.3867 41.2594 45.3076 41.3375 46.4097 41.4157C48.6099 41.572 51.5231 41.7282 54.3784 41.7282C55.7656 41.7282 57.1412 41.6931 58.409 41.5993C59.6768 41.5095 60.8366 41.361 61.7922 41.15C62.428 41.0094 62.9714 40.8375 63.3875 40.646C63.8191 40.4468 64.1929 40.1499 64.4588 39.7436C64.7246 39.3373 64.898 38.8216 64.9019 38.1262C64.9019 37.544 64.7747 36.8369 64.4588 35.997C64.1698 35.2273 63.7189 34.3444 63.0715 33.3481L42.4369 33.8482C42.0438 33.8599 41.6739 33.9615 41.331 34.1412C40.988 34.3209 40.6759 34.5788 40.4139 34.8991C39.8821 35.5399 39.5469 36.4345 39.5469 37.4307C39.5469 37.4776 39.5469 37.5206 39.5507 37.5636C39.5738 38.3215 39.7858 39.013 40.1287 39.5795Z" fill="#BCCFE4"/>
<path d="M40.1287 39.5795C40.4678 40.146 40.9379 40.5796 41.462 40.8375C41.8126 41.0094 42.1864 41.0992 42.5795 41.0992H42.6565H42.6565C42.6797 41.0992 42.7105 41.0992 42.7336 41.1031C42.7336 41.1031 42.7567 41.1071 42.7991 41.111C42.8215 41.1129 42.8485 41.1157 42.88 41.119C42.9134 41.1224 42.952 41.1265 42.9956 41.1305C43.0598 41.1363 43.135 41.1437 43.2205 41.152C43.3661 41.1663 43.5416 41.1836 43.7432 41.2008C44.3867 41.2594 45.3076 41.3375 46.4097 41.4157C48.6099 41.572 51.5231 41.7282 54.3784 41.7282C55.7656 41.7282 57.1412 41.6931 58.409 41.5993C59.6768 41.5095 60.8366 41.361 61.7922 41.15C62.428 41.0094 62.9714 40.8375 63.3875 40.646C63.8191 40.4468 64.1929 40.1499 64.4588 39.7436C64.7246 39.3373 64.898 38.8216 64.9019 38.1262C64.9019 37.544 64.7747 36.8369 64.4588 35.997C64.1698 35.2273 63.7189 34.3444 63.0715 33.3481L42.4369 33.8482C42.0438 33.8599 41.6739 33.9615 41.331 34.1412C40.988 34.3209 40.6759 34.5788 40.4139 34.8991C39.8821 35.5399 39.5469 36.4345 39.5469 37.4307C39.5469 37.4776 39.5469 37.5206 39.5507 37.5636C39.5738 38.3215 39.7858 39.013 40.1287 39.5795Z" stroke="#405367"/>
<path d="M37.7669 35.3331C37.8979 35.0401 37.7707 34.6924 37.4817 34.5596C37.1927 34.4268 36.8498 34.5557 36.7188 34.8487C36.7149 34.8604 36.5916 35.13 36.3488 35.5636C35.9404 36.2942 35.1928 37.4858 34.1177 38.6617C33.2623 39.5994 32.1988 40.5253 30.9426 41.209C29.6826 41.8966 28.2337 42.3458 26.5652 42.3458C25.7907 42.3458 24.9661 42.2443 24.0914 42.0255C23.8987 41.9786 23.7022 41.9239 23.5057 41.8614C23.3284 41.8067 23.1473 41.8458 23.0086 41.9434C22.9045 42.0177 22.8236 42.1193 22.7851 42.2521C22.762 42.3341 22.7542 42.4162 22.7658 42.4943C22.7928 42.717 22.9431 42.9123 23.1704 42.9827C24.3688 43.3538 25.5055 43.5179 26.5691 43.5179C28.461 43.5179 30.1218 42.9983 31.5283 42.2208C33.6399 41.0566 35.189 39.3415 36.2217 37.9194C37.2004 36.5527 37.7119 35.4515 37.7628 35.3418C37.765 35.337 37.7664 35.3341 37.7669 35.3331Z" fill="#405367"/>
<path d="M37.7669 35.3331C37.8979 35.0401 37.7707 34.6924 37.4817 34.5596C37.1927 34.4268 36.8498 34.5557 36.7188 34.8487C36.7149 34.8604 36.5916 35.13 36.3488 35.5636C35.9404 36.2942 35.1928 37.4858 34.1177 38.6617C33.2623 39.5994 32.1988 40.5253 30.9426 41.209C29.6826 41.8966 28.2337 42.3458 26.5652 42.3458C25.7907 42.3458 24.9661 42.2443 24.0914 42.0255C23.8987 41.9786 23.7022 41.9239 23.5057 41.8614C23.3284 41.8067 23.1473 41.8458 23.0086 41.9434C22.9045 42.0177 22.8236 42.1193 22.7851 42.2521C22.762 42.3341 22.7542 42.4162 22.7658 42.4943C22.7928 42.717 22.9431 42.9123 23.1704 42.9827C24.3688 43.3538 25.5055 43.5179 26.5691 43.5179C28.461 43.5179 30.1218 42.9983 31.5283 42.2208C33.6399 41.0566 35.189 39.3415 36.2217 37.9194C37.2004 36.5527 37.7119 35.4515 37.7628 35.3418C37.765 35.337 37.7664 35.3341 37.7669 35.3331Z" stroke="#405367"/>
<path d="M65.8074 48.5693C66.2544 47.8622 66.5473 46.9714 66.5473 45.9635C66.5473 45.1821 66.37 44.3343 65.9693 43.4592C65.6456 42.756 65.1755 42.0371 64.5435 41.3066C64.8749 41.0644 65.1755 40.7596 65.4221 40.3924C65.8228 39.7907 66.0617 39.0211 66.0617 38.1225C66.0617 37.3685 65.8999 36.5207 65.5454 35.5792C65.241 34.7666 64.7901 33.8758 64.1736 32.907C64.3316 32.7702 64.4857 32.6139 64.6322 32.446C65.0869 31.9224 65.503 31.2466 65.8113 30.4886C66.1195 29.7307 66.3238 28.8869 66.3238 28.0274C66.3238 27.203 66.1311 26.3592 65.6494 25.6091C65.1678 24.859 64.4048 24.2261 63.3451 23.7963C62.6631 23.5189 61.8269 23.3509 60.8674 23.2415C59.9118 23.1321 58.8367 23.0892 57.7038 23.0892C56.2743 23.0892 54.756 23.1595 53.2802 23.265C52.8409 22.9915 52.3901 22.7415 51.9277 22.511C49.6966 21.3936 47.2343 20.7724 44.6564 20.7685C44.5408 20.7568 44.0013 20.7138 43.1228 20.7099L47.4385 14.8068C48.371 13.7949 49.0723 12.7362 49.5386 11.6266C50.0126 10.5054 50.2438 9.33725 50.2438 8.13005C50.2438 6.665 49.9047 5.14525 49.2689 3.56691C48.9914 2.88712 48.5791 2.03935 47.9857 1.3244C47.689 0.968886 47.346 0.644622 46.9376 0.398493C46.533 0.156272 46.059 0 45.5427 0C45.4194 0 45.2961 0.00781359 45.1728 0.0273476C44.6256 0.101577 44.1632 0.347705 43.8048 0.675876C43.5351 0.922004 43.3232 1.2072 43.1459 1.50802C42.88 1.96121 42.6874 2.44566 42.5255 2.90666C42.3637 3.36766 42.225 3.80913 42.0862 4.15293C41.7548 4.98507 41.2963 5.73127 40.7453 6.43059C39.9207 7.47761 38.8841 8.41133 37.7898 9.31381C36.6954 10.2163 35.5471 11.0836 34.499 12.0212C30.0599 15.9983 25.802 20.6591 22.5922 25.7888C22.1221 26.3045 21.6365 26.8436 21.124 27.4101H0.578002C0.427721 27.4101 0.277441 27.4726 0.169547 27.582C0.0616535 27.6914 0 27.8398 0 27.9961V58.9458C0 59.0981 0.0616535 59.2505 0.169547 59.3599C0.277441 59.4693 0.423868 59.5318 0.578002 59.5318H15.2862C15.8527 59.985 16.4576 60.3874 17.1011 60.739C19.1974 61.8837 21.6982 62.4775 24.5882 62.4775L47.5811 62.7119H47.5888C50.159 62.7119 52.444 62.2275 54.4169 61.2977C55.2377 60.9109 56.0045 60.4421 56.7135 59.9068C57.8002 59.8717 58.8483 59.8053 59.8078 59.6959C60.5515 59.6099 61.2451 59.4966 61.8693 59.3521C62.4974 59.2036 63.0561 59.0239 63.5417 58.7934C64.1813 58.4887 64.7747 57.9573 65.2256 57.2463C65.6726 56.5392 65.9654 55.6484 65.9654 54.6405C65.9654 53.8591 65.7882 53.0113 65.3874 52.1323C65.0869 51.4799 64.663 50.8118 64.1004 50.1359C64.112 50.132 64.1235 50.1242 64.1351 50.1203C64.767 49.8078 65.3604 49.2764 65.8074 48.5693ZM64.4588 35.9933C64.7747 36.8333 64.9019 37.5404 64.9019 38.1225C64.9019 38.8179 64.7285 39.3336 64.4588 39.7399C64.189 40.1423 63.8191 40.4393 63.3875 40.6424C62.9714 40.8339 62.428 41.0057 61.7922 41.1464C60.8366 41.3574 59.6768 41.5019 58.409 41.5957C57.1413 41.6855 55.7695 41.7246 54.3784 41.7246C51.5231 41.7246 48.6061 41.5683 46.4097 41.4121C45.3115 41.3339 44.3905 41.2558 43.7432 41.1972C43.4195 41.1659 43.1652 41.1425 42.9956 41.1269C42.9109 41.119 42.8415 41.1112 42.7991 41.1073C42.7529 41.1034 42.7336 41.0995 42.7336 41.0995C42.7105 41.0956 42.6796 41.0956 42.6565 41.0956C42.6296 41.0956 42.6026 41.0956 42.5795 41.0956C42.1864 41.0956 41.8088 41.0057 41.462 40.8338C40.9379 40.5799 40.4717 40.1423 40.1287 39.5759C39.7896 39.0094 39.5739 38.3179 39.5507 37.56C39.5507 37.517 39.5469 37.4701 39.5469 37.4271C39.5469 36.4309 39.8821 35.5362 40.4139 34.8955C40.6798 34.5752 40.9919 34.3173 41.331 34.1376C41.6739 33.9579 42.0438 33.8563 42.4369 33.8446L63.0716 33.3445C63.7189 34.3408 64.1698 35.2237 64.4588 35.9933ZM57.7 24.2573C58.802 24.2573 59.8386 24.3003 60.7364 24.4019C61.6304 24.5034 62.3895 24.6675 62.9097 24.8785L63.1255 24.3354L62.9097 24.8785C63.7883 25.2379 64.3354 25.7145 64.6784 26.2459C65.0213 26.7772 65.1639 27.3788 65.1678 28.0235C65.1716 28.9142 64.8749 29.8714 64.4549 30.6527C64.2468 31.0434 64.0041 31.3911 63.7652 31.6685C63.5725 31.8951 63.376 32.0631 63.2103 32.1725L45.1111 32.61C44.7181 32.61 44.3443 32.5202 43.9936 32.3483C43.4696 32.0943 43.0033 31.6568 42.6604 31.0903C42.3213 30.5238 42.1055 29.8323 42.0824 29.0744C42.0824 29.0314 42.0785 28.9884 42.0785 28.9416C42.0785 27.9453 42.4138 27.0507 42.9455 26.41C43.2114 26.0896 43.5235 25.8317 43.8626 25.652C44.2056 25.4723 44.5755 25.3707 44.9685 25.359C44.9917 25.359 45.0148 25.3551 45.0379 25.3512C45.0379 25.3512 45.0649 25.3473 45.1188 25.3395C45.5157 25.2809 47.3615 25.0074 49.7582 24.7496C52.155 24.4956 55.1028 24.2573 57.7 24.2573ZM47.5888 61.5399L24.5998 61.3055H24.5959C22.1644 61.3055 20.0721 60.864 18.2995 60.0358C17.3555 59.5943 16.5039 59.0434 15.7332 58.3871L15.7216 58.4105C15.6484 58.3793 15.5714 58.3597 15.4866 58.3597H1.15215V28.5782H21.3745C21.5363 28.5782 21.6866 28.5118 21.7984 28.3907C22.1259 28.0313 22.438 27.6875 22.7424 27.3515C22.9081 27.328 23.0623 27.2343 23.1548 27.078C23.2434 26.9296 23.3359 26.785 23.4283 26.6365C26.5727 21.546 30.8191 16.8774 35.262 12.8963C36.5914 11.7048 38.1712 10.5718 39.6201 9.27474C40.3445 8.62621 41.0343 7.9308 41.6431 7.16116C42.2519 6.39152 42.7721 5.54375 43.1536 4.59049C43.2962 4.22716 43.4233 3.83648 43.5582 3.4458C43.7586 2.86368 43.9859 2.29329 44.2749 1.89089C44.4175 1.68774 44.5716 1.52756 44.7412 1.41035C44.9107 1.29315 45.0957 1.21501 45.3346 1.18376C45.4078 1.17204 45.4772 1.16813 45.5465 1.16813C45.8317 1.16813 46.0937 1.25018 46.3557 1.40645C46.7488 1.63695 47.1264 2.05107 47.4424 2.53161C47.7622 3.01214 48.0204 3.55128 48.2053 4.00837C48.7988 5.47733 49.0955 6.84471 49.0955 8.12614C49.0955 9.18488 48.8951 10.185 48.4828 11.1656C48.0705 12.1423 47.4424 13.0956 46.5754 14.0371C46.56 14.0567 46.5484 14.0684 46.533 14.0879L39.7627 23.3236C39.6625 23.4564 39.6316 23.6205 39.6586 23.7729C39.6817 23.9135 39.7588 24.0502 39.8821 24.144C40.1364 24.3354 40.4987 24.2807 40.6875 24.0229L42.2519 21.8898C42.5217 21.882 42.776 21.8781 43.0033 21.8781C43.5081 21.8781 43.9012 21.8937 44.167 21.9054C44.298 21.9132 44.4021 21.921 44.4676 21.9249C44.5023 21.9289 44.5254 21.9289 44.5408 21.9328H44.5562H44.5601C44.5832 21.9367 44.5909 21.9367 44.6179 21.9367C46.9337 21.9367 49.1417 22.4719 51.1647 23.4408C50.4634 23.5072 49.7891 23.5775 49.1571 23.6478C46.822 23.9057 45.1073 24.1675 44.8876 24.1987C44.3327 24.2221 43.8048 24.3706 43.3309 24.6206C42.6026 25.0035 42.0015 25.6169 41.5814 26.367C41.1614 27.1171 40.9225 28.0039 40.9225 28.9494C40.9225 29.0041 40.9225 29.0627 40.9264 29.1213C40.9649 30.3988 41.4312 31.5552 42.1749 32.3991C42.2635 32.4967 42.3521 32.5905 42.4484 32.6804H42.4061H42.4022C41.8319 32.696 41.2886 32.8484 40.8031 33.1062C40.0748 33.4891 39.4737 34.1024 39.0536 34.8525C38.6336 35.6026 38.3947 36.4895 38.3947 37.4349C38.3947 37.4896 38.3947 37.5482 38.3986 37.6068C38.4371 38.8844 38.9034 40.0408 39.6471 40.8846C39.7395 40.9901 39.8359 41.0917 39.9399 41.1855L39.6817 41.1933H39.6779C39.1076 41.2089 38.5643 41.3613 38.0788 41.6191C37.3505 42.002 36.7494 42.6153 36.3293 43.3655C35.9093 44.1156 35.6704 45.0024 35.6704 45.9478C35.6704 46.0025 35.6704 46.0611 35.6743 46.1197V46.1158C35.7128 47.3934 36.1791 48.5498 36.9228 49.3936C37.2965 49.8156 37.7397 50.1633 38.2367 50.4055C38.599 50.5813 38.9881 50.7024 39.3966 50.7532C39.123 51.0345 38.8841 51.3588 38.6876 51.7104C38.2676 52.4605 38.0287 53.3473 38.0287 54.2928C38.0287 54.3475 38.0287 54.4022 38.0325 54.4608C38.071 55.7383 38.5373 56.8947 39.281 57.7425C39.6548 58.1644 40.0979 58.5121 40.595 58.7543C41.0921 58.9966 41.6392 59.1294 42.2134 59.1294C42.2365 59.1294 42.2558 59.1294 42.275 59.1294C42.7875 59.1919 48.8296 59.9029 54.5325 59.9342C52.5982 60.9734 50.29 61.5399 47.5888 61.5399ZM64.3393 52.6246C64.6784 53.3629 64.8094 54.0349 64.8094 54.6366C64.8094 55.414 64.5859 56.0821 64.2507 56.6134C63.9154 57.1447 63.4684 57.5315 63.0484 57.7307C62.6708 57.9105 62.1814 58.0745 61.6111 58.2074C60.7518 58.4066 59.7114 58.5473 58.5708 58.6371C57.4303 58.727 56.1856 58.7621 54.9102 58.7621C51.9277 58.7621 48.7911 58.5629 46.3981 58.3597C45.2036 58.2582 44.194 58.1605 43.485 58.0824C43.1305 58.0433 42.853 58.012 42.6604 57.9925C42.564 57.9808 42.4908 57.973 42.4446 57.9652C42.3945 57.9612 42.3714 57.9573 42.3714 57.9573C42.3483 57.9534 42.3097 57.9534 42.2866 57.9534C42.2596 57.9534 42.2327 57.9534 42.2095 57.9534C41.8165 57.9534 41.4389 57.8636 41.0921 57.6917C40.568 57.4377 40.1018 57.0002 39.7588 56.4337C39.4197 55.8672 39.2039 55.1757 39.1808 54.4178V54.4139C39.1808 54.3709 39.1808 54.3279 39.1808 54.285C39.1808 53.2887 39.5161 52.3941 40.0478 51.7533C40.3137 51.433 40.6258 51.1751 40.9649 50.9954C41.0343 50.9603 41.1075 50.929 41.1807 50.8978C43.4734 51.1126 48.4674 51.5189 53.3496 51.5189C55.492 51.5189 57.6152 51.4408 59.4802 51.2298C60.4127 51.1244 61.2836 50.9876 62.0697 50.804C62.3741 50.7337 62.6631 50.6555 62.9405 50.5696C63.5918 51.2923 64.0426 51.9838 64.3393 52.6246ZM63.6341 49.0655C63.1602 49.296 62.5398 49.4991 61.8115 49.6671C60.721 49.9172 59.3955 50.093 57.9505 50.1984C56.5055 50.3078 54.9333 50.3508 53.3496 50.3508C50.0858 50.3508 46.7449 50.1672 44.2287 49.9797C42.9687 49.8859 41.9128 49.796 41.1768 49.7257C40.8069 49.6906 40.5179 49.6632 40.3176 49.6437C40.2174 49.632 40.1441 49.6241 40.0902 49.6202C40.0401 49.6163 40.0131 49.6124 40.0131 49.6124C39.99 49.6085 39.9592 49.6085 39.9361 49.6085C39.9091 49.6085 39.8821 49.6085 39.8551 49.6085C39.4621 49.6085 39.0845 49.5187 38.7377 49.3468C38.2136 49.0928 37.7474 48.6553 37.4044 48.0888C37.0653 47.5223 36.8495 46.8308 36.8264 46.0729V46.069C36.8264 46.026 36.8226 45.983 36.8226 45.9361C36.8226 44.9399 37.1578 44.0452 37.6896 43.4045C37.9554 43.0842 38.2676 42.8263 38.6067 42.6466C38.9496 42.4669 39.3195 42.3653 39.7126 42.3536H39.7087L42.7875 42.2755C43.8087 42.377 49.1648 42.8888 54.3784 42.8888C56.2588 42.8888 58.1161 42.8224 59.7577 42.6466C60.5784 42.5567 61.3453 42.4395 62.035 42.2872C62.5629 42.17 63.0484 42.0332 63.48 41.8652C64.1543 42.5997 64.6167 43.3029 64.9173 43.9554C65.2564 44.6899 65.3874 45.3618 65.3913 45.9674C65.3913 46.7448 65.1678 47.409 64.8325 47.9403C64.5011 48.4716 64.0542 48.8623 63.6341 49.0655Z" fill="#405367"/>
</svg>
