<svg width="104" height="56" viewBox="0 0 104 56" fill="none" xmlns="http://www.w3.org/2000/svg">
<path d="M88.9375 51.3171C93.1821 49.5338 95.1977 44.5981 93.4395 40.2929C91.6813 35.9877 86.815 33.9433 82.5704 35.7266C78.3258 37.5099 76.3102 42.4456 78.0684 46.7508C79.8266 51.056 84.6929 53.1004 88.9375 51.3171Z" fill="#405367"/>
<path d="M88.9375 51.3171C93.1821 49.5338 95.1977 44.5981 93.4395 40.2929C91.6813 35.9877 86.815 33.9433 82.5704 35.7266C78.3258 37.5099 76.3102 42.4456 78.0684 46.7508C79.8266 51.056 84.6929 53.1004 88.9375 51.3171Z" stroke="#A2BFDE"/>
<path d="M89.1561 44.0847C89.4625 42.1698 88.1804 40.3656 86.2924 40.0548C84.4045 39.744 82.6256 41.0444 82.3192 42.9593C82.0128 44.8742 83.2949 46.6785 85.1829 46.9892C87.0708 47.3 88.8497 45.9996 89.1561 44.0847Z" fill="#A2BFDE"/>
<path d="M89.1561 44.0847C89.4625 42.1698 88.1804 40.3656 86.2924 40.0548C84.4045 39.744 82.6256 41.0444 82.3192 42.9593C82.0128 44.8742 83.2949 46.6785 85.1829 46.9892C87.0708 47.3 88.8497 45.9996 89.1561 44.0847Z" stroke="#A2BFDE"/>
<path d="M38.1096 49.4858C41.3582 46.1908 41.3582 40.8487 38.1096 37.5538C34.861 34.2589 29.594 34.2589 26.3454 37.5538C23.0968 40.8487 23.0968 46.1908 26.3454 49.4858C29.594 52.7807 34.861 52.7807 38.1096 49.4858Z" fill="#405367"/>
<path d="M38.1096 49.4858C41.3582 46.1908 41.3582 40.8487 38.1096 37.5538C34.861 34.2589 29.594 34.2589 26.3454 37.5538C23.0968 40.8487 23.0968 46.1908 26.3454 49.4858C29.594 52.7807 34.861 52.7807 38.1096 49.4858Z" stroke="#405367"/>
<path d="M34.6761 46.0035C36.0285 44.6318 36.0285 42.4078 34.6761 41.036C33.3237 39.6643 31.131 39.6643 29.7786 41.036C28.4262 42.4078 28.4262 44.6318 29.7786 46.0035C31.131 47.3752 33.3237 47.3752 34.6761 46.0035Z" fill="#A2BFDE"/>
<path d="M34.6761 46.0035C36.0285 44.6318 36.0285 42.4078 34.6761 41.036C33.3237 39.6643 31.131 39.6643 29.7786 41.036C28.4262 42.4078 28.4262 44.6318 29.7786 46.0035C31.131 47.3752 33.3237 47.3752 34.6761 46.0035Z" stroke="#A2BFDE"/>
<path d="M95.6815 43.5265H102.465V41.4262H104V37.7688H101.644V25.493L93.4323 20.4234L84.2568 7.31476H71.3327V35.0891H68.5479V0H16.6372V35.0891H13.9952V43.5265H21.6355C21.6355 43.5265 22.1353 33.3872 32.239 33.3872C42.3427 33.3872 42.4855 43.5265 42.4855 43.5265H75.5455C75.5455 43.5265 76.5095 33.2423 85.7563 33.2423C95.0032 33.2423 95.6815 43.5265 95.6815 43.5265Z" fill="#405367"/>
<path d="M95.6815 43.5265H102.465V41.4262H104V37.7688H101.644V25.493L93.4323 20.4234L84.2568 7.31476H71.3327V35.0891H68.5479V0H16.6372V35.0891H13.9952V43.5265H21.6355C21.6355 43.5265 22.1353 33.3872 32.239 33.3872C42.3427 33.3872 42.4855 43.5265 42.4855 43.5265H75.5455C75.5455 43.5265 76.5095 33.2423 85.7563 33.2423C95.0032 33.2423 95.6815 43.5265 95.6815 43.5265Z" stroke="#A2BFDE"/>
<path d="M73.5461 10.0669V17.5627H87.6127L83.3642 10.0669H73.5461Z" fill="#A2BFDE"/>
<path d="M73.5461 10.0669V17.5627H87.6127L83.3642 10.0669H73.5461Z" stroke="#A2BFDE"/>
<path d="M64.0852 3.11426H20.6001V9.01676H64.0852V3.11426Z" fill="#A2BFDE"/>
<path d="M64.0852 3.11426H20.6001V9.01676H64.0852V3.11426Z" stroke="#A2BFDE"/>
<path d="M64.0852 11.6602H20.6001V17.5627H64.0852V11.6602Z" fill="#A2BFDE"/>
<path d="M64.0852 11.6602H20.6001V17.5627H64.0852V11.6602Z" stroke="#A2BFDE"/>
<path d="M64.0852 20.2061H20.6001V26.1086H64.0852V20.2061Z" fill="#A2BFDE"/>
<path d="M64.0852 20.2061H20.6001V26.1086H64.0852V20.2061Z" stroke="#A2BFDE"/>
<path d="M12.6028 6.9165H0V11.1533H12.6028V6.9165Z" fill="#405367"/>
<path d="M12.6028 6.9165H0V11.1533H12.6028V6.9165Z" stroke="#A2BFDE"/>
<path d="M12.6028 16.8384H3.85577V21.0751H12.6028V16.8384Z" fill="#405367"/>
<path d="M12.6028 16.8384H3.85577V21.0751H12.6028V16.8384Z" stroke="#A2BFDE"/>
<path d="M12.6385 26.7607H8.24713V30.9975H12.6385V26.7607Z" fill="#405367"/>
<path d="M12.6385 26.7607H8.24713V30.9975H12.6385V26.7607Z" stroke="#A2BFDE"/>
</svg>
