<svg width="58" height="55" viewBox="0 0 58 55" fill="none" xmlns="http://www.w3.org/2000/svg">
<path d="M32.2778 44.6531L8.74251 3.64813H0V0H10.8268L35.4043 42.8436L32.2778 44.6531Z" fill="#405367"/>
<path d="M32.2778 44.6531L8.74251 3.64813H0V0H10.8268L35.4043 42.8436L32.2778 44.6531Z" stroke="#405367"/>
<path d="M55.1705 29.4775L32.9262 42.6431L34.7583 45.7892L57.0026 32.6237L55.1705 29.4775Z" fill="#405367"/>
<path d="M55.1705 29.4775L32.9262 42.6431L34.7583 45.7892L57.0026 32.6237L55.1705 29.4775Z" stroke="#A2BFDE"/>
<path d="M42.3326 46.2629C43.4385 41.5413 40.5383 36.8098 35.8549 35.6949C31.1715 34.58 26.4784 37.5038 25.3725 42.2254C24.2667 46.947 27.1668 51.6785 31.8502 52.7934C36.5336 53.9083 41.2267 50.9845 42.3326 46.2629Z" fill="#405367"/>
<path d="M42.3326 46.2629C43.4385 41.5413 40.5383 36.8098 35.8549 35.6949C31.1715 34.58 26.4784 37.5038 25.3725 42.2254C24.2667 46.947 27.1668 51.6785 31.8502 52.7934C36.5336 53.9083 41.2267 50.9845 42.3326 46.2629Z" stroke="#A2BFDE"/>
<path d="M33.8411 47.8924C35.8396 47.8924 37.4597 46.2591 37.4597 44.2443C37.4597 42.2295 35.8396 40.5962 33.8411 40.5962C31.8426 40.5962 30.2225 42.2295 30.2225 44.2443C30.2225 46.2591 31.8426 47.8924 33.8411 47.8924Z" fill="#A2BFDE"/>
<path d="M33.8411 47.8924C35.8396 47.8924 37.4597 46.2591 37.4597 44.2443C37.4597 42.2295 35.8396 40.5962 33.8411 40.5962C31.8426 40.5962 30.2225 42.2295 30.2225 44.2443C30.2225 46.2591 31.8426 47.8924 33.8411 47.8924Z" stroke="#A2BFDE"/>
<path d="M27.5592 23.9023L32.8279 33.5042C32.8279 33.5042 37.5465 32.9205 40.1808 35.4596L51.6156 29.214L43.5099 14.5923L27.5592 23.9023Z" fill="#A2BFDE"/>
<path d="M27.5592 23.9023L32.8279 33.5042C32.8279 33.5042 37.5465 32.9205 40.1808 35.4596L51.6156 29.214L43.5099 14.5923L27.5592 23.9023Z" stroke="#A2BFDE"/>
<path d="M19.772 10.5648L26.6618 22.0929L39.5729 14.5923L33.0884 3.26855L19.772 10.5648Z" fill="#A2BFDE"/>
<path d="M19.772 10.5648L26.6618 22.0929L39.5729 14.5923L33.0884 3.26855L19.772 10.5648Z" stroke="#A2BFDE"/>
<path d="M10.161 14.2715H2.66333V17.9196H10.161V14.2715Z" fill="#405367"/>
<path d="M10.161 14.2715H2.66333V17.9196H10.161V14.2715Z" stroke="#A2BFDE"/>
<path d="M14.6191 24.019H4.83447V27.6672H14.6191V24.019Z" fill="#405367"/>
<path d="M14.6191 24.019H4.83447V27.6672H14.6191V24.019Z" stroke="#A2BFDE"/>
<path d="M20.7852 33.6211H7.00562V37.2692H20.7852V33.6211Z" fill="#405367"/>
<path d="M20.7852 33.6211H7.00562V37.2692H20.7852V33.6211Z" stroke="#405367"/>
</svg>
