<svg xmlns="http://www.w3.org/2000/svg"><symbol id="icon_arrow-link" viewBox="0 0 63 22"><path d="M61 11H1M49.235 1 61 11 49.235 21" stroke-width="2" stroke-linecap="round"/></symbol><symbol id="icon_fb" viewBox="0 0 10 19"><path d="M2.745 18.211h3.594V9.212h2.506l.269-3.011H6.339V4.485c0-.71.142-.991.829-.991h1.946V.366H6.627c-2.675 0-3.88 1.178-3.88 3.432v2.403H.88v3.05h1.869v8.96h-.003z"/></symbol><symbol id="icon_filter" viewBox="0 0 24 24"><path d="M1 0h22l-9 15.094V24l-4-3v-5.906z"/></symbol><symbol id="icon_instagram" viewBox="0 0 18 17"><path d="M9.015 1.658c2.16 0 2.415.01 3.27.049.79.035 1.218.168 1.502.278.38.146.648.324.93.606.282.281.46.553.605.93.11.284.243.715.279 1.502.039.854.048 1.11.048 3.27s-.01 2.416-.048 3.27c-.036.79-.169 1.218-.279 1.503a2.45 2.45 0 0 1-.605.93 2.54 2.54 0 0 1-.93.605c-.284.11-.712.243-1.502.278-.855.04-1.11.049-3.27.049s-2.42-.01-3.271-.049c-.79-.035-1.217-.168-1.502-.278a2.487 2.487 0 0 1-.93-.606 2.474 2.474 0 0 1-.605-.929c-.11-.285-.243-.712-.279-1.502-.039-.855-.048-1.111-.048-3.27 0-2.16.006-2.42.048-3.271.036-.79.169-1.218.279-1.503.145-.379.32-.648.605-.93.282-.281.554-.46.93-.605.285-.11.712-.243 1.502-.278.852-.042 1.11-.049 3.27-.049zm0-1.46c-2.2 0-2.474.01-3.339.048-.861.04-1.45.175-1.965.376a3.982 3.982 0 0 0-1.435.933c-.45.45-.725.9-.933 1.434-.2.515-.336 1.104-.375 1.966-.039.864-.049 1.14-.049 3.338 0 2.199.01 2.474.049 3.339.039.86.175 1.45.375 1.965.208.531.483.985.933 1.435.45.45.9.728 1.435.932.514.2 1.104.337 1.965.376.865.039 1.14.048 3.339.048 2.198 0 2.473-.01 3.338-.048.861-.04 1.45-.175 1.966-.376a3.984 3.984 0 0 0 1.434-.932c.45-.45.725-.9.933-1.435.2-.515.336-1.104.375-1.965.04-.865.049-1.14.049-3.339s-.01-2.474-.049-3.338c-.039-.862-.175-1.451-.375-1.966a3.981 3.981 0 0 0-.933-1.434c-.45-.45-.9-.729-1.434-.933-.515-.2-1.105-.337-1.966-.376-.864-.039-1.14-.048-3.338-.048z"/><path d="M9.014 4.139a4.158 4.158 0 0 0 0 8.315 4.156 4.156 0 0 0 4.155-4.158c0-2.299-1.859-4.157-4.155-4.157zm0 6.852a2.698 2.698 0 1 1 .001-5.396 2.698 2.698 0 0 1 0 5.396zM14.306 3.973a.97.97 0 0 1-.972.972.97.97 0 0 1-.971-.972.97.97 0 0 1 .971-.971.97.97 0 0 1 .972.971z"/></symbol><symbol id="icon_log-out" viewBox="0 0 42 33"><path d="M27.01.546a14.14 14.14 0 0 0-7.889 2.417C16.823 4.499 14.966 6.67 13.74 9.24l-.265.55h2.611l.108-.19C18.451 5.558 22.6 3.043 27.01 3.043c6.927 0 12.566 5.981 12.566 13.334 0 7.352-5.635 13.334-12.562 13.334-4.287 0-8.242-2.295-10.572-6.138l-.108-.178h-2.66l.29.563c2.614 5.088 7.616 8.25 13.046 8.25 8.198 0 14.868-7.103 14.868-15.831S35.208.546 27.01.546z"/><path d="M3.715 17.647h14.928c.606 0 1.1-.568 1.1-1.266 0-.698-.494-1.266-1.1-1.266H3.964l4.372-5.358c.433-.53.429-1.355-.008-1.88a1.103 1.103 0 0 0-.847-.415h-.004c-.32 0-.63.157-.85.424L.322 15.615c-.433.529-.429 1.354.008 1.88l6.357 7.67c.22.266.53.414.847.414h.004c.32 0 .63-.157.85-.423.433-.53.429-1.355-.008-1.88l-4.665-5.63z"/></symbol><symbol id="icon_star" viewBox="0 0 20 18"><path d="m10 1 2.02 6.219h6.54l-5.29 3.843 2.02 6.22L10 13.437 4.71 17.28l2.02-6.219L1.44 7.22h6.54L10 1z" stroke-linejoin="round"/></symbol><symbol id="icon_telegram" viewBox="0 0 24 24"><path id="telegram-1" d="M18.384 22.779a1.19 1.19 0 0 0 1.107.145 1.16 1.16 0 0 0 .724-.84C21.084 18 23.192 7.663 23.983 3.948a.78.78 0 0 0-.26-.758.8.8 0 0 0-.797-.14C18.733 4.602 5.82 9.447.542 11.4a.827.827 0 0 0-.542.799c.012.354.25.661.593.764 2.367.708 5.474 1.693 5.474 1.693s1.452 4.385 2.209 6.615c.095.28.314.5.603.576a.866.866 0 0 0 .811-.207l3.096-2.923s3.572 2.619 5.598 4.062zm-11.01-8.677 1.679 5.538.373-3.507 10.185-9.186a.277.277 0 0 0 .033-.377.284.284 0 0 0-.376-.064L7.374 14.102z"/></symbol><symbol id="icon_twitter" viewBox="0 0 16 14"><path d="M.133 11.943a9.13 9.13 0 0 0 4.948 1.45c5.994 0 9.378-5.06 9.174-9.6a6.473 6.473 0 0 0 1.609-1.671c-.58.256-1.201.43-1.852.508A3.217 3.217 0 0 0 15.43.846a6.518 6.518 0 0 1-2.05.784A3.223 3.223 0 0 0 11.023.61C8.94.61 7.409 2.552 7.879 4.573A9.155 9.155 0 0 1 1.228 1.2a3.233 3.233 0 0 0 1 4.31 3.202 3.202 0 0 1-1.463-.405C.729 6.6 1.8 8 3.352 8.31a3.233 3.233 0 0 1-1.457.055 3.23 3.23 0 0 0 3.014 2.24 6.477 6.477 0 0 1-4.776 1.338z"/></symbol><symbol id="icon_user" viewBox="0 0 24 24"><path d="M12 0C5.373 0 0 5.373 0 12s5.373 12 12 12 12-5.373 12-12S18.627 0 12 0zm7.753 18.305c-.261-.586-.789-.991-1.871-1.241-2.293-.529-4.428-.993-3.393-2.945C17.634 8.177 15.322 5 12 5c-3.388 0-5.644 3.299-2.489 9.119 1.066 1.964-1.148 2.427-3.393 2.945-1.084.25-1.608.658-1.867 1.246A9.954 9.954 0 0 1 2 12C2 6.486 6.486 2 12 2s10 4.486 10 10a9.956 9.956 0 0 1-2.247 6.305z"/></symbol><symbol id="icon_vk" viewBox="0 0 24 24"><path class="st0" d="M13.162 18.994c.609 0 .858-.406.851-.915-.031-1.917.714-2.949 2.059-1.604 1.488 1.488 1.796 2.519 3.603 2.519h3.2c.808 0 1.126-.26 1.126-.668 0-.863-1.421-2.386-2.625-3.504-1.686-1.565-1.765-1.602-.313-3.486C22.864 8.997 25.22 6 23.136 6h-3.981c-.772 0-.828.435-1.103 1.083-.995 2.347-2.886 5.387-3.604 4.922-.751-.485-.407-2.406-.35-5.261.015-.754.011-1.271-1.141-1.539A8.07 8.07 0 0 0 11.148 5c-2.273 0-3.841.953-2.95 1.119 1.571.293 1.42 3.692 1.054 5.16-.638 2.556-3.036-2.024-4.035-4.305C4.976 6.426 4.902 6 4.042 6H.787C.295 6 0 6.16 0 6.516c0 .602 2.96 6.72 5.786 9.77 2.756 2.975 5.48 2.708 7.376 2.708z"/></symbol></svg>