<svg width="283" height="98" viewBox="0 0 283 98" fill="none" xmlns="http://www.w3.org/2000/svg">
<path d="M89.1998 47.9C89.1998 69.4 72.8998 87.2 51.8998 89.3C50.4998 89.5 48.9998 89.5 47.4998 89.5C26.1998 89.5 8.5998 73.5 6.0998 52.8C5.8998 51.2 5.7998 49.5 5.7998 47.8C5.7998 24.8 24.4998 6.09998 47.4998 6.09998C70.4998 6.19998 89.1998 24.8 89.1998 47.9Z" fill="url(#paint0_linear)"/>
<path opacity="0.2" d="M60.0996 57.8L65.7996 75.4L51.8996 89.3C50.4996 89.5 48.9996 89.5 47.4996 89.5C26.1996 89.5 8.59961 73.5 6.09961 52.8L18.0996 40.8L22.9996 43.9L47.4996 19.4L57.9996 51.6L76.9996 40.8L60.0996 57.8Z" fill="#001E32"/>
<path d="M47.5997 19.4L56.6997 37.9L77.0997 40.8L62.2997 55.2L65.7997 75.5L47.5997 65.9L29.3997 75.5L32.8997 55.2L18.1997 40.8L38.4997 37.9L47.5997 19.4Z" fill="url(#paint1_radial)"/>
<path d="M100.7 49.6V33H104.9V45.8H112.8V49.5H100.7V49.6Z" fill="#4FA5DB"/>
<path d="M129.7 48C128.3 49.3 126.6 49.9 124.5 49.9C122.4 49.9 120.7 49.3 119.3 48C117.9 46.7 117.3 45 117.3 42.6V33H121.5V42.8C121.5 43.9 121.8 44.6 122.3 45.1C122.9 45.6 123.6 45.9 124.4 45.9C125.3 45.9 126 45.6 126.6 45.1C127.2 44.6 127.4 43.8 127.4 42.8V33H131.6V42.6C131.7 45 131.1 46.7 129.7 48Z" fill="#4FA5DB"/>
<path d="M145.7 49.9C143.1 49.9 140.9 49.1 139.1 47.5C137.3 45.9 136.5 43.7999 136.5 41.2999C136.5 38.7999 137.4 36.6999 139.1 35.0999C140.8 33.4999 143 32.7 145.7 32.7C147.3 32.7 148.7 32.9999 150 33.5999V37.7999C148.7 36.9999 147.3 36.5999 145.8 36.5999C144.4 36.5999 143.3 37 142.3 37.9C141.4 38.8 140.9 39.8999 140.9 41.2999C140.9 42.6999 141.4 43.8 142.3 44.7C143.2 45.6 144.4 46 145.9 46C147.6 46 149.1 45.6 150.2 44.7V48.9C148.9 49.5 147.4 49.9 145.7 49.9Z" fill="#4FA5DB"/>
<path d="M155.3 49.6V33H159.5V39.3L164.9 33H170L163.6 40.6L171.2 49.5H166L159.5 42.2V49.5H155.3V49.6Z" fill="#4FA5DB"/>
<path d="M179.9 49.6V42.3L173.6 33.1H178.4L182.1 38.6L185.8 33.1H190.5L184.1 42.2V49.6H179.9Z" fill="#4FA5DB"/>
<path d="M208.7 49.8999C206.2 49.8999 204 49.2999 202.3 48.0999V43.7999C203 44.3999 203.9 44.9999 205.1 45.3999C206.3 45.7999 207.4 46.0999 208.5 46.0999C210.2 46.0999 211 45.6999 211 44.7999C211 44.2999 210.6 43.8999 209.9 43.5999C209.7 43.4999 209 43.2999 207.8 42.9999C207.1 42.7999 206.5 42.5999 206.1 42.4999C205.7 42.3999 205.2 42.1999 204.6 41.8999C204 41.5999 203.6 41.2999 203.3 40.9999C203 40.6999 202.7 40.1999 202.5 39.6999C202.3 39.1999 202.2 38.4999 202.2 37.8999C202.2 36.2999 202.8 35.0999 204 34.1999C205.2 33.2999 206.8 32.8999 208.7 32.8999C210.7 32.8999 212.6 33.3999 214.3 34.2999V38.3999C213.6 37.9999 212.7 37.5999 211.7 37.2999C210.7 36.9999 209.7 36.7999 208.8 36.7999C207.4 36.7999 206.6 37.1999 206.6 37.8999C206.6 38.0999 206.7 38.1999 206.8 38.2999C206.9 38.3999 207.1 38.4999 207.3 38.5999C207.6 38.6999 207.8 38.7999 208 38.8999C208.2 38.9999 208.6 39.0999 209.1 39.1999C209.6 39.2999 210 39.3999 210.3 39.5999C211.1 39.8999 211.7 40.0999 212.2 40.3999C212.7 40.6999 213.3 40.9999 213.8 41.3999C214.3 41.7999 214.7 42.2999 215 42.8999C215.3 43.4999 215.4 44.1999 215.4 44.8999C215.4 46.4999 214.8 47.7999 213.5 48.7999C212.3 49.3999 210.7 49.8999 208.7 49.8999Z" fill="#4FA5DB"/>
<path d="M223.8 49.6V36.8H218.8V33H233V36.7H228V49.5H223.8V49.6Z" fill="#4FA5DB"/>
<path d="M233.9 49.6L240.8 33H244.9L251.8 49.6H247.2L245.8 46.1H239.7L238.3 49.6H233.9ZM241.1 42.7H244.5L242.8 38.3L241.1 42.7Z" fill="#4FA5DB"/>
<path d="M256.1 49.6V33H263.9C265.7 33 267.2 33.5 268.2 34.4C269.3 35.4 269.8 36.6 269.8 38.1C269.8 39.2 269.5 40.1 269 40.9C268.5 41.7 267.7 42.3 266.6 42.7L271.6 49.5H266.7L262 43.2H260.3V49.5H256.1V49.6ZM260.3 39.8H263.6C264.2 39.8 264.6 39.7 265 39.4C265.3 39.1 265.5 38.7 265.5 38.2C265.5 37.7 265.3 37.3 265 37C264.7 36.7 264.2 36.6 263.6 36.6H260.3V39.8Z" fill="#4FA5DB"/>
<path d="M99.7998 66.5999V64.7999C100.2 65.1999 100.8 65.4999 101.5 65.7999C102.2 66.0999 102.9 66.1999 103.7 66.1999C105.1 66.1999 106.1 65.5999 106.1 64.5999C106.1 64.1999 105.9 63.8999 105.6 63.5999C105.5 63.4999 105.3 63.3999 105.1 63.2999C104.6 63.0999 104.3 62.9999 103.7 62.7999L103.5 62.6999C102.9 62.4999 102.5 62.3999 102.1 62.2999C101.8 62.1999 101.4 61.9999 101.1 61.7999C100.3 61.2999 99.9998 60.5999 99.9998 59.6999C99.9998 57.9999 101.5 56.7999 103.8 56.7999C105.1 56.7999 106.2 57.0999 107.2 57.6999V59.2999C106.1 58.6999 105 58.2999 103.9 58.2999C102.5 58.2999 101.8 58.8999 101.8 59.5999C101.8 60.0999 102.1 60.2999 102.4 60.4999C102.6 60.5999 103.1 60.7999 103.3 60.8999L104.5 61.1999C105.3 61.3999 105.8 61.5999 106.4 61.9999C107.3 62.4999 107.8 63.1999 107.9 64.3999C107.9 65.3999 107.5 66.0999 106.7 66.6999C105.9 67.2999 105 67.4999 103.8 67.4999C102.2 67.6999 100.9 67.3999 99.7998 66.5999Z" fill="white"/>
<path d="M141.9 67.6V57.1H146.4C147.5 57.1 148.4 57.4 149 58C149.6 58.6 149.9 59.3 149.9 60.2C149.9 61.1 149.6 61.9 149 62.5C148.4 63.1 147.5 63.4 146.4 63.4H143.5V67.7H141.9V67.6ZM143.5 61.7H146.2C147.4 61.7 148.2 61.1 148.2 60.1C148.2 59.1 147.5 58.5 146.2 58.5H143.5V61.7Z" fill="white"/>
<path d="M183.8 67.6V57.1H185.5V67.6H183.8Z" fill="white"/>
<path d="M220.1 67.6V57.1H221.5L227.4 64.7V57.1H229V67.6H227.6L221.6 60V67.6H220.1Z" fill="white"/>
<path d="M263 66.5999V64.7999C263.4 65.1999 264 65.4999 264.7 65.7999C265.4 66.0999 266.1 66.1999 266.9 66.1999C268.3 66.1999 269.3 65.5999 269.3 64.5999C269.3 64.1999 269.1 63.8999 268.8 63.5999C268.7 63.4999 268.5 63.3999 268.3 63.2999C267.8 63.0999 267.5 62.9999 266.9 62.7999L266.7 62.6999C266.1 62.4999 265.7 62.3999 265.3 62.2999C265 62.1999 264.6 61.9999 264.3 61.7999C263.5 61.2999 263.2 60.5999 263.2 59.6999C263.2 57.9999 264.7 56.7999 267 56.7999C268.3 56.7999 269.4 57.0999 270.4 57.6999V59.2999C269.3 58.6999 268.2 58.2999 267.1 58.2999C265.7 58.2999 265 58.8999 265 59.5999C265 60.0999 265.3 60.2999 265.6 60.4999C265.8 60.5999 266.3 60.7999 266.5 60.8999L267.7 61.1999C268.5 61.3999 269 61.5999 269.6 61.9999C270.5 62.4999 271 63.1999 271.1 64.3999C271.1 65.3999 270.7 66.0999 269.9 66.6999C269.1 67.2999 268.2 67.4999 267 67.4999C265.4 67.6999 264.1 67.3999 263 66.5999Z" fill="white"/>
<defs>
<linearGradient id="paint0_linear" x1="47.5039" y1="-133.299" x2="47.5039" y2="146.941" gradientUnits="userSpaceOnUse">
<stop stop-color="#FF001C"/>
<stop offset="0.2194" stop-color="#FF009D"/>
<stop offset="0.2677" stop-color="#F9049F"/>
<stop offset="0.3324" stop-color="#E80FA3"/>
<stop offset="0.4064" stop-color="#CC22AA"/>
<stop offset="0.4872" stop-color="#A53CB4"/>
<stop offset="0.5737" stop-color="#735DC0"/>
<stop offset="0.6634" stop-color="#3785CF"/>
<stop offset="0.7369" stop-color="#00AADD"/>
<stop offset="1" stop-color="#FFD400"/>
</linearGradient>
<radialGradient id="paint1_radial" cx="0" cy="0" r="1" gradientUnits="userSpaceOnUse" gradientTransform="translate(47.6074 47.4418) scale(28.7441)">
<stop offset="0.5561" stop-color="white"/>
<stop offset="1" stop-color="#F3F3F3"/>
</radialGradient>
</defs>
</svg>
