<svg xmlns="http://www.w3.org/2000/svg"><symbol id="icon_map" viewBox="0 0 24 24"><path d="M12 0C7.802 0 4 3.403 4 7.602 4 11.8 7.469 16.812 12 24c4.531-7.188 8-12.2 8-16.398C20 3.403 16.199 0 12 0zm0 11a3 3 0 1 1 0-6 3 3 0 0 1 0 6z"/></symbol><symbol id="icon_phone" viewBox="0 0 24 24"><path d="M16 0v3H8a2 2 0 0 0-2 2v17a2 2 0 0 0 2 2h8a2 2 0 0 0 2-2V0h-2zm-6 21H8v-1h2v1zm0-2H8v-1h2v1zm0-2H8v-1h2v1zm3 4h-2v-1h2v1zm0-2h-2v-1h2v1zm0-2h-2v-1h2v1zm3 4h-2v-1h2v1zm0-2h-2v-1h2v1zm0-2h-2v-1h2v1zm0-3H8V6h8v8z"/></symbol><symbol id="icon_time" viewBox="0 0 24 24"><path d="M12 2c5.514 0 10 4.486 10 10s-4.486 10-10 10S2 17.514 2 12 6.486 2 12 2zm0-2C5.373 0 0 5.373 0 12s5.373 12 12 12 12-5.373 12-12S18.627 0 12 0zm5.848 12.459c.202.038.202.333.001.372-1.907.361-6.045 1.111-6.547 1.111a1.3 1.3 0 0 1-1.301-1.301c0-.512.77-5.447 1.125-7.445.034-.192.312-.181.343.014l.985 6.238 5.394 1.011z"/></symbol><symbol id="icon_vk" viewBox="0 0 24 24"><path class="st0" d="M13.162 18.994c.609 0 .858-.406.851-.915-.031-1.917.714-2.949 2.059-1.604 1.488 1.488 1.796 2.519 3.603 2.519h3.2c.808 0 1.126-.26 1.126-.668 0-.863-1.421-2.386-2.625-3.504-1.686-1.565-1.765-1.602-.313-3.486C22.864 8.997 25.22 6 23.136 6h-3.981c-.772 0-.828.435-1.103 1.083-.995 2.347-2.886 5.387-3.604 4.922-.751-.485-.407-2.406-.35-5.261.015-.754.011-1.271-1.141-1.539A8.07 8.07 0 0 0 11.148 5c-2.273 0-3.841.953-2.95 1.119 1.571.293 1.42 3.692 1.054 5.16-.638 2.556-3.036-2.024-4.035-4.305C4.976 6.426 4.902 6 4.042 6H.787C.295 6 0 6.16 0 6.516c0 .602 2.96 6.72 5.786 9.77 2.756 2.975 5.48 2.708 7.376 2.708z"/></symbol></svg>