<svg xmlns="http://www.w3.org/2000/svg"><symbol id="icon_map" viewBox="0 0 24 24"><path d="M12 0C7.802 0 4 3.403 4 7.602 4 11.8 7.469 16.812 12 24c4.531-7.188 8-12.2 8-16.398C20 3.403 16.199 0 12 0zm0 11a3 3 0 1 1 0-6 3 3 0 0 1 0 6z"/></symbol><symbol id="icon_phone" viewBox="0 0 24 24"><path d="M16 0v3H8a2 2 0 0 0-2 2v17a2 2 0 0 0 2 2h8a2 2 0 0 0 2-2V0h-2zm-6 21H8v-1h2v1zm0-2H8v-1h2v1zm0-2H8v-1h2v1zm3 4h-2v-1h2v1zm0-2h-2v-1h2v1zm0-2h-2v-1h2v1zm3 4h-2v-1h2v1zm0-2h-2v-1h2v1zm0-2h-2v-1h2v1zm0-3H8V6h8v8z"/></symbol><symbol id="icon_time" viewBox="0 0 24 24"><path d="M12 2c5.514 0 10 4.486 10 10s-4.486 10-10 10S2 17.514 2 12 6.486 2 12 2zm0-2C5.373 0 0 5.373 0 12s5.373 12 12 12 12-5.373 12-12S18.627 0 12 0zm5.848 12.459c.202.038.202.333.001.372-1.907.361-6.045 1.111-6.547 1.111a1.3 1.3 0 0 1-1.301-1.301c0-.512.77-5.447 1.125-7.445.034-.192.312-.181.343.014l.985 6.238 5.394 1.011z"/></symbol></svg>